<svg id="Layer_1" data-name="Layer 1" xmlns="http://www.w3.org/2000/svg" viewBox="0 0 23 19"><defs><style>.cls-1{fill:#fff;}</style></defs><path class="cls-1" d="M19.86,3.23a10.9,10.9,0,0,0-5.22-2.09l-.26.51a10.07,10.07,0,0,1,5,2.62A15.35,15.35,0,0,0,11.5,2.18,15.35,15.35,0,0,0,3.66,4.27a10.28,10.28,0,0,1,5-2.62l-.26-.51A10.88,10.88,0,0,0,3.14,3.23S.46,7.11,0,14.73a9.87,9.87,0,0,0,6.8,3.13l.85-1.14a10.45,10.45,0,0,1-4.51-3A13.16,13.16,0,0,0,11.5,16.3a13.16,13.16,0,0,0,8.36-2.62,10.45,10.45,0,0,1-4.51,3l.85,1.14A9.87,9.87,0,0,0,23,14.73C22.54,7.11,19.86,3.23,19.86,3.23ZM8.1,12.64a2,2,0,0,1-1.83-2.09A2,2,0,0,1,8.1,8.45a2,2,0,0,1,1.83,2.1A2,2,0,0,1,8.1,12.64Zm6.8,0a2,2,0,0,1-1.83-2.09,2,2,0,0,1,1.83-2.1,2,2,0,0,1,1.83,2.1A2,2,0,0,1,14.9,12.64Z"/></svg>